<svg width="16" height="19" viewBox="0 0 16 19" fill="none" xmlns="http://www.w3.org/2000/svg">
<g clip-path="url(#clip0_1_6432)">
<path d="M9.125 3.0625C9.125 2.44023 8.62227 1.9375 8 1.9375C7.37773 1.9375 6.875 2.44023 6.875 3.0625V8.125H1.8125C1.19023 8.125 0.6875 8.62773 0.6875 9.25C0.6875 9.87227 1.19023 10.375 1.8125 10.375H6.875V15.4375C6.875 16.0598 7.37773 16.5625 8 16.5625C8.62227 16.5625 9.125 16.0598 9.125 15.4375V10.375H14.1875C14.8098 10.375 15.3125 9.87227 15.3125 9.25C15.3125 8.62773 14.8098 8.125 14.1875 8.125H9.125V3.0625Z" fill="#4B5563"/>
</g>
<defs>
<clipPath id="clip0_1_6432">
<path d="M0.125 0.25H15.875V18.25H0.125V0.25Z" fill="white"/>
</clipPath>
</defs>
</svg>
