<svg width="12" height="19" viewBox="0 0 12 19" fill="none" xmlns="http://www.w3.org/2000/svg">
<g clip-path="url(#clip0_1_5089)">
<g clip-path="url(#clip1_1_5089)">
<path d="M0.5625 5.3125C0.5625 3.96984 1.09587 2.68217 2.04527 1.73277C2.99467 0.783369 4.28234 0.25 5.625 0.25C6.96766 0.25 8.25532 0.783369 9.20473 1.73277C10.1541 2.68217 10.6875 3.96984 10.6875 5.3125C10.6875 6.65516 10.1541 7.94283 9.20473 8.89223C8.25532 9.84163 6.96766 10.375 5.625 10.375C4.28234 10.375 2.99467 9.84163 2.04527 8.89223C1.09587 7.94283 0.5625 6.65516 0.5625 5.3125ZM5.625 3.0625C5.93437 3.0625 6.1875 2.80938 6.1875 2.5C6.1875 2.19062 5.93437 1.9375 5.625 1.9375C3.76172 1.9375 2.25 3.44922 2.25 5.3125C2.25 5.62187 2.50312 5.875 2.8125 5.875C3.12188 5.875 3.375 5.62187 3.375 5.3125C3.375 4.07148 4.38398 3.0625 5.625 3.0625ZM4.5 17.125V11.398C4.86562 11.4648 5.2418 11.5 5.625 11.5C6.0082 11.5 6.38438 11.4648 6.75 11.398V17.125C6.75 17.7473 6.24727 18.25 5.625 18.25C5.00273 18.25 4.5 17.7473 4.5 17.125Z" fill="#2563EB"/>
</g>
</g>
<defs>
<clipPath id="clip0_1_5089">
<rect width="11.25" height="18" fill="white" transform="translate(0 0.25)"/>
</clipPath>
<clipPath id="clip1_1_5089">
<path d="M0 0.25H11.25V18.25H0V0.25Z" fill="white"/>
</clipPath>
</defs>
</svg>
