<svg width="15" height="15" viewBox="0 0 15 15" fill="none" xmlns="http://www.w3.org/2000/svg">
<g clip-path="url(#clip0_18_1480)">
<path d="M4.04688 1.625V2.5H2.73438C2.00977 2.5 1.42188 3.08789 1.42188 3.8125V5.125H13.6719V3.8125C13.6719 3.08789 13.084 2.5 12.3594 2.5H11.0469V1.625C11.0469 1.14102 10.6559 0.75 10.1719 0.75C9.68789 0.75 9.29688 1.14102 9.29688 1.625V2.5H5.79688V1.625C5.79688 1.14102 5.40586 0.75 4.92188 0.75C4.43789 0.75 4.04688 1.14102 4.04688 1.625ZM13.6719 6H1.42188V13.4375C1.42188 14.1621 2.00977 14.75 2.73438 14.75H12.3594C13.084 14.75 13.6719 14.1621 13.6719 13.4375V6ZM7.54688 7.53125C7.91055 7.53125 8.20312 7.82383 8.20312 8.1875V9.71875H9.73438C10.098 9.71875 10.3906 10.0113 10.3906 10.375C10.3906 10.7387 10.098 11.0312 9.73438 11.0312H8.20312V12.5625C8.20312 12.9262 7.91055 13.2188 7.54688 13.2188C7.1832 13.2188 6.89062 12.9262 6.89062 12.5625V11.0312H5.35938C4.9957 11.0312 4.70312 10.7387 4.70312 10.375C4.70312 10.0113 4.9957 9.71875 5.35938 9.71875H6.89062V8.1875C6.89062 7.82383 7.1832 7.53125 7.54688 7.53125Z" fill="white"/>
</g>
<defs>
<clipPath id="clip0_18_1480">
<path d="M0.546875 0.75H14.5469V14.75H0.546875V0.75Z" fill="white"/>
</clipPath>
</defs>
</svg>
