<svg width="13" height="15" viewBox="0 0 13 15" fill="none" xmlns="http://www.w3.org/2000/svg">
<g clip-path="url(#clip0_1_7884)">
<g clip-path="url(#clip1_1_7884)">
<path d="M4.25 0.75C4.73398 0.75 5.125 1.14102 5.125 1.625V2.5H8.625V1.625C8.625 1.14102 9.01602 0.75 9.5 0.75C9.98398 0.75 10.375 1.14102 10.375 1.625V2.5H11.6875C12.4121 2.5 13 3.08789 13 3.8125V5.125H0.75V3.8125C0.75 3.08789 1.33789 2.5 2.0625 2.5H3.375V1.625C3.375 1.14102 3.76602 0.75 4.25 0.75ZM0.75 6H13V13.4375C13 14.1621 12.4121 14.75 11.6875 14.75H2.0625C1.33789 14.75 0.75 14.1621 0.75 13.4375V6ZM2.5 8.1875V9.0625C2.5 9.30313 2.69687 9.5 2.9375 9.5H3.8125C4.05312 9.5 4.25 9.30313 4.25 9.0625V8.1875C4.25 7.94688 4.05312 7.75 3.8125 7.75H2.9375C2.69687 7.75 2.5 7.94688 2.5 8.1875ZM6 8.1875V9.0625C6 9.30313 6.19688 9.5 6.4375 9.5H7.3125C7.55312 9.5 7.75 9.30313 7.75 9.0625V8.1875C7.75 7.94688 7.55312 7.75 7.3125 7.75H6.4375C6.19688 7.75 6 7.94688 6 8.1875ZM9.9375 7.75C9.69687 7.75 9.5 7.94688 9.5 8.1875V9.0625C9.5 9.30313 9.69687 9.5 9.9375 9.5H10.8125C11.0531 9.5 11.25 9.30313 11.25 9.0625V8.1875C11.25 7.94688 11.0531 7.75 10.8125 7.75H9.9375ZM2.5 11.6875V12.5625C2.5 12.8031 2.69687 13 2.9375 13H3.8125C4.05312 13 4.25 12.8031 4.25 12.5625V11.6875C4.25 11.4469 4.05312 11.25 3.8125 11.25H2.9375C2.69687 11.25 2.5 11.4469 2.5 11.6875ZM6.4375 11.25C6.19688 11.25 6 11.4469 6 11.6875V12.5625C6 12.8031 6.19688 13 6.4375 13H7.3125C7.55312 13 7.75 12.8031 7.75 12.5625V11.6875C7.75 11.4469 7.55312 11.25 7.3125 11.25H6.4375ZM9.5 11.6875V12.5625C9.5 12.8031 9.69687 13 9.9375 13H10.8125C11.0531 13 11.25 12.8031 11.25 12.5625V11.6875C11.25 11.4469 11.0531 11.25 10.8125 11.25H9.9375C9.69687 11.25 9.5 11.4469 9.5 11.6875Z" fill="#9CA3AF"/>
</g>
</g>
<defs>
<clipPath id="clip0_1_7884">
<rect width="12.25" height="14" fill="white" transform="translate(0.75 0.75)"/>
</clipPath>
<clipPath id="clip1_1_7884">
<path d="M0.75 0.75H13V14.75H0.75V0.75Z" fill="white"/>
</clipPath>
</defs>
</svg>
