<svg width="16" height="22" viewBox="0 0 16 22" fill="none" xmlns="http://www.w3.org/2000/svg">
<path d="M16 22H0V0H16V22Z"/>
<g clip-path="url(#clip0_19_2344)">
<path d="M8 3C10.1217 3 12.1566 3.84285 13.6569 5.34315C15.1571 6.84344 16 8.87827 16 11C16 13.1217 15.1571 15.1566 13.6569 16.6569C12.1566 18.1571 10.1217 19 8 19C5.87827 19 3.84344 18.1571 2.34315 16.6569C0.842855 15.1566 0 13.1217 0 11C0 8.87827 0.842855 6.84344 2.34315 5.34315C3.84344 3.84285 5.87827 3 8 3ZM7.25 6.75V11C7.25 11.25 7.375 11.4844 7.58437 11.625L10.5844 13.625C10.9281 13.8562 11.3938 13.7625 11.625 13.4156C11.8562 13.0687 11.7625 12.6062 11.4156 12.375L8.75 10.6V6.75C8.75 6.33437 8.41562 6 8 6C7.58437 6 7.25 6.33437 7.25 6.75Z" fill="#9CA3AF"/>
</g>
<defs>
<clipPath id="clip0_19_2344">
<path d="M0 3H16V19H0V3Z" fill="white"/>
</clipPath>
</defs>
</svg>
