<svg width="25" height="24" viewBox="0 0 25 24" fill="none" xmlns="http://www.w3.org/2000/svg">
<path d="M9.75 21H15.75" stroke="#1C1C1C" stroke-width="1.05882" stroke-linecap="round" stroke-linejoin="round"/>
<path d="M5.99988 9.75C5.99988 7.95979 6.71104 6.2429 7.97691 4.97703C9.24278 3.71116 10.9597 3 12.7499 3C14.5401 3 16.257 3.71116 17.5229 4.97703C18.7887 6.2429 19.4999 7.95979 19.4999 9.75C19.4999 13.1081 20.278 15.8063 20.8968 16.875C20.9625 16.9888 20.9971 17.1179 20.9972 17.2493C20.9974 17.3808 20.9629 17.5099 20.8974 17.6239C20.8319 17.7378 20.7376 17.8325 20.624 17.8985C20.5103 17.9645 20.3813 17.9995 20.2499 18H5.24988C5.11861 17.9992 4.98985 17.964 4.87646 17.8978C4.76308 17.8317 4.66904 17.7369 4.60375 17.6231C4.53845 17.5092 4.5042 17.3801 4.5044 17.2489C4.50459 17.1176 4.53925 16.9887 4.60488 16.875C5.2227 15.8063 5.99988 13.1072 5.99988 9.75Z" stroke="#1C1C1C" stroke-width="1.41176" stroke-linecap="round" stroke-linejoin="round"/>
</svg>
