<svg width="20" height="20" viewBox="0 0 20 20" fill="none" xmlns="http://www.w3.org/2000/svg">
<path d="M5.83301 7.5L9.99967 10.4167L14.1663 7.5" stroke="#252B5C" stroke-width="1.6" stroke-linecap="round" stroke-linejoin="round"/>
<path d="M1.6665 14.1665V5.83317C1.6665 5.39114 1.8421 4.96722 2.15466 4.65466C2.46722 4.3421 2.89114 4.1665 3.33317 4.1665H16.6665C17.1085 4.1665 17.5325 4.3421 17.845 4.65466C18.1576 4.96722 18.3332 5.39114 18.3332 5.83317V14.1665C18.3332 14.6085 18.1576 15.0325 17.845 15.345C17.5325 15.6576 17.1085 15.8332 16.6665 15.8332H3.33317C2.89114 15.8332 2.46722 15.6576 2.15466 15.345C1.8421 15.0325 1.6665 14.6085 1.6665 14.1665Z" stroke="#252B5C" stroke-width="1.6"/>
</svg>
