<svg width="49" height="48" viewBox="0 0 49 48" fill="none" xmlns="http://www.w3.org/2000/svg">
<path d="M36.5 0C43.1274 0 48.5 5.37258 48.5 12V36C48.5 42.6274 43.1274 48 36.5 48H12.5C5.87258 48 0.5 42.6274 0.5 36V12C0.5 5.37258 5.87258 0 12.5 0H36.5Z" fill="#F59E0B"/>
<path d="M36.5 0C43.1274 0 48.5 5.37258 48.5 12V36C48.5 42.6274 43.1274 48 36.5 48H12.5C5.87258 48 0.5 42.6274 0.5 36V12C0.5 5.37258 5.87258 0 12.5 0H36.5Z"/>
<path d="M32 38H17V10H32V38Z"/>
<g clip-path="url(#clip0_19_2351)">
<path d="M17.5469 13.586C17.8789 13.4337 18.2695 13.4884 18.5469 13.7266L20.125 15.0782L21.7031 13.7266C22.0547 13.4259 22.5742 13.4259 22.9219 13.7266L24.5 15.0782L26.0781 13.7266C26.4297 13.4259 26.9492 13.4259 27.2969 13.7266L28.875 15.0782L30.4531 13.7266C30.7305 13.4884 31.1211 13.4337 31.4531 13.586C31.7852 13.7384 32 14.0704 32 14.4376V32.5626C32 32.9298 31.7852 33.2618 31.4531 33.4141C31.1211 33.5665 30.7305 33.5118 30.4531 33.2735L28.875 31.9219L27.2969 33.2735C26.9453 33.5743 26.4258 33.5743 26.0781 33.2735L24.5 31.9219L22.9219 33.2735C22.5703 33.5743 22.0508 33.5743 21.7031 33.2735L20.125 31.9219L18.5469 33.2735C18.2695 33.5118 17.8789 33.5665 17.5469 33.4141C17.2148 33.2618 17 32.9298 17 32.5626V14.4376C17 14.0704 17.2148 13.7384 17.5469 13.586ZM20.75 19.1251C20.4062 19.1251 20.125 19.4063 20.125 19.7501C20.125 20.0938 20.4062 20.3751 20.75 20.3751H28.25C28.5938 20.3751 28.875 20.0938 28.875 19.7501C28.875 19.4063 28.5938 19.1251 28.25 19.1251H20.75ZM20.125 27.2501C20.125 27.5938 20.4062 27.8751 20.75 27.8751H28.25C28.5938 27.8751 28.875 27.5938 28.875 27.2501C28.875 26.9063 28.5938 26.6251 28.25 26.6251H20.75C20.4062 26.6251 20.125 26.9063 20.125 27.2501ZM20.75 22.8751C20.4062 22.8751 20.125 23.1563 20.125 23.5001C20.125 23.8438 20.4062 24.1251 20.75 24.1251H28.25C28.5938 24.1251 28.875 23.8438 28.875 23.5001C28.875 23.1563 28.5938 22.8751 28.25 22.8751H20.75Z" fill="white"/>
</g>
<defs>
<clipPath id="clip0_19_2351">
<path d="M17 13.5H32V33.5H17V13.5Z" fill="white"/>
</clipPath>
</defs>
</svg>
