<svg width="8" height="8" viewBox="0 0 8 8" fill="none" xmlns="http://www.w3.org/2000/svg">
<g clip-path="url(#clip0_201_18675)">
<path d="M1.18075 1.99522L1.53617 1.64258L6.17882 6.28523L5.82618 6.64065L4.97095 5.78542C4.65163 5.89094 4.31287 5.94647 3.95745 5.94647C2.5691 5.94647 1.38345 5.08292 0.903076 3.86394C1.09467 3.37524 1.40011 2.94485 1.78885 2.60332L1.18075 1.99522ZM3.95745 3.03093C4.17838 3.03093 4.39026 3.11869 4.54648 3.27491C4.7027 3.43113 4.79047 3.64301 4.79047 3.86394C4.79047 3.96113 4.77381 4.05554 4.74326 4.14161L3.67978 3.07814C3.76586 3.04759 3.86027 3.03093 3.95745 3.03093ZM3.95745 1.78141C5.34581 1.78141 6.53146 2.64497 7.01183 3.86394C6.78414 4.4415 6.39818 4.94131 5.90115 5.30505L5.50686 4.90798C5.88449 4.64697 6.19548 4.29156 6.40651 3.86394C5.94835 2.93097 5.00149 2.33675 3.95745 2.33675C3.65479 2.33675 3.35768 2.38674 3.08001 2.47559L2.6524 2.05075C3.05225 1.8786 3.49374 1.78141 3.95745 1.78141ZM1.5084 3.86394C1.96655 4.79692 2.91341 5.39113 3.95745 5.39113C4.14905 5.39113 4.33786 5.3717 4.51279 5.33282L3.87971 4.69696C3.48264 4.6553 3.16609 4.33876 3.12444 3.94169L2.18036 2.99483C1.90547 3.23085 1.675 3.52519 1.5084 3.86394Z" fill="black"/>
</g>
<defs>
<clipPath id="clip0_201_18675">
<rect width="6.6641" height="6.6641" fill="white" transform="translate(0.625488 0.532227)"/>
</clipPath>
</defs>
</svg>
