<svg width="7" height="8" viewBox="0 0 7 8" fill="none" xmlns="http://www.w3.org/2000/svg">
<g clip-path="url(#clip0_201_18679)">
<path d="M3.3847 3.03174C3.60563 3.03174 3.81751 3.11951 3.97373 3.27573C4.12995 3.43195 4.21771 3.64383 4.21771 3.86476C4.21771 4.08569 4.12995 4.29756 3.97373 4.45378C3.81751 4.61 3.60563 4.69777 3.3847 4.69777C3.16377 4.69777 2.95189 4.61 2.79567 4.45378C2.63945 4.29756 2.55169 4.08569 2.55169 3.86476C2.55169 3.64383 2.63945 3.43195 2.79567 3.27573C2.95189 3.11951 3.16377 3.03174 3.3847 3.03174ZM3.3847 1.78223C4.77305 1.78223 5.95871 2.64578 6.43908 3.86476C5.95871 5.08373 4.77305 5.94729 3.3847 5.94729C1.99635 5.94729 0.810692 5.08373 0.330322 3.86476C0.810692 2.64578 1.99635 1.78223 3.3847 1.78223ZM0.935644 3.86476C1.3938 4.79773 2.34066 5.39195 3.3847 5.39195C4.42874 5.39195 5.3756 4.79773 5.83375 3.86476C5.3756 2.93178 4.42874 2.33757 3.3847 2.33757C2.34066 2.33757 1.3938 2.93178 0.935644 3.86476Z" fill="black"/>
</g>
<defs>
<clipPath id="clip0_201_18679">
<rect width="6.6641" height="6.6641" fill="white" transform="translate(0.0527344 0.532227)"/>
</clipPath>
</defs>
</svg>
