<svg width="19" height="19" viewBox="0 0 19 19" fill="none" xmlns="http://www.w3.org/2000/svg">
<path d="M9.38278 1.4104C7.79759 1.4104 6.248 1.88046 4.92996 2.76115C3.61193 3.64183 2.58464 4.89358 1.97802 6.3581C1.37139 7.82262 1.21267 9.43414 1.52193 10.9889C1.83118 12.5436 2.59452 13.9717 3.71542 15.0926C4.83632 16.2135 6.26443 16.9768 7.81916 17.2861C9.37389 17.5954 10.9854 17.4366 12.4499 16.83C13.9145 16.2234 15.1662 15.1961 16.0469 13.8781C16.9276 12.56 17.3976 11.0104 17.3976 9.42525C17.3956 7.30022 16.5505 5.26281 15.0478 3.76018C13.5452 2.25756 11.5078 1.41247 9.38278 1.4104ZM9.29676 14.5469C9.08938 14.5469 8.89049 14.4646 8.74385 14.3179C8.59721 14.1713 8.51483 13.9724 8.51483 13.765C8.51483 13.5576 8.59721 13.3587 8.74385 13.2121C8.89049 13.0654 9.08938 12.9831 9.29676 12.9831C9.50415 12.9831 9.70304 13.0654 9.84968 13.2121C9.99632 13.3587 10.0787 13.5576 10.0787 13.765C10.0787 13.9724 9.99632 14.1713 9.84968 14.3179C9.70304 14.4646 9.50415 14.5469 9.29676 14.5469ZM12.2838 8.82316C12.1231 9.19588 11.8864 9.53097 11.5889 9.80699C11.2913 10.083 10.9394 10.2939 10.5557 10.4261C10.4277 10.482 10.317 10.5711 10.2351 10.6842C10.1437 10.806 10.0943 10.9541 10.0943 11.1064V11.6616C10.0943 11.869 10.012 12.0679 9.86532 12.2145C9.71867 12.3611 9.51978 12.4435 9.3124 12.4435C9.10502 12.4435 8.90613 12.3611 8.75949 12.2145C8.61285 12.0679 8.53047 11.869 8.53047 11.6616V11.083C8.53523 10.6137 8.6855 10.1574 8.96053 9.77713C9.23171 9.41555 9.60475 9.14325 10.0318 8.99519C10.2168 8.93575 10.3855 8.83402 10.5244 8.69805C10.6621 8.57434 10.7712 8.42212 10.8441 8.25198C10.9171 8.08183 10.952 7.89785 10.9467 7.71281C10.9433 7.52618 10.9007 7.34234 10.8215 7.17327C10.7045 6.95792 10.5384 6.7731 10.3367 6.63374C10.1311 6.4848 9.89221 6.38818 9.64082 6.35224C9.25849 6.27952 8.86286 6.33447 8.51483 6.50863C8.17523 6.67611 7.90037 6.95097 7.73289 7.29057C7.64683 7.47928 7.48932 7.62608 7.29502 7.69867C7.10072 7.77126 6.88554 7.76369 6.69682 7.67762C6.50811 7.59156 6.36131 7.43405 6.28872 7.23975C6.21613 7.04545 6.2237 6.83028 6.30976 6.64156C6.61176 5.97883 7.12695 5.43628 7.77317 5.10041C8.4194 4.76454 9.15947 4.65469 9.8754 4.78837C10.3604 4.86279 10.8212 5.05029 11.2203 5.33572C11.6292 5.6268 11.964 6.0098 12.1978 6.45389C12.3771 6.82412 12.4755 7.22834 12.4863 7.6396C12.4971 8.05085 12.42 8.45968 12.2603 8.8388L12.2838 8.82316Z" fill="#111111"/>
</svg>
