<svg width="23" height="23" viewBox="0 0 23 23" fill="none" xmlns="http://www.w3.org/2000/svg">
<path d="M1.84033 21.1009V4.54224C1.84033 4.03628 2.02064 3.60331 2.38125 3.24331C2.74186 2.88331 3.17484 2.70301 3.68018 2.70239H18.399C18.905 2.70239 19.3382 2.8827 19.6988 3.24331C20.0595 3.60392 20.2395 4.0369 20.2388 4.54224V15.5814C20.2388 16.0873 20.0588 16.5206 19.6988 16.8812C19.3389 17.2418 18.9056 17.4218 18.399 17.4212H5.52003L1.84033 21.1009ZM11.0396 14.6614C11.3002 14.6614 11.5189 14.5731 11.6955 14.3965C11.8721 14.2199 11.9601 14.0015 11.9595 13.7415C11.9589 13.4815 11.8706 13.2631 11.6946 13.0865C11.5186 12.9099 11.3002 12.8216 11.0396 12.8216C10.7789 12.8216 10.5606 12.9099 10.3846 13.0865C10.2086 13.2631 10.1203 13.4815 10.1197 13.7415C10.119 14.0015 10.2074 14.2202 10.3846 14.3974C10.5618 14.5746 10.7802 14.6627 11.0396 14.6614ZM10.1197 10.9817H11.9595V5.46217H10.1197V10.9817Z" fill="#111111"/>
</svg>
