<svg width="18" height="19" viewBox="0 0 18 19" fill="none" xmlns="http://www.w3.org/2000/svg">
<g clip-path="url(#clip0_1_6413)">
<path d="M1.125 2.5C1.125 1.25898 2.13398 0.25 3.375 0.25H9C10.241 0.25 11.25 1.25898 11.25 2.5V9.25H11.5312C13.2398 9.25 14.625 10.6352 14.625 12.3438V13.4688C14.625 13.9363 15.0012 14.3125 15.4688 14.3125C15.9363 14.3125 16.3125 13.9363 16.3125 13.4688V8.05469C15.3422 7.80508 14.625 6.92266 14.625 5.875V3.625L13.5 2.5C13.1906 2.19062 13.1906 1.68438 13.5 1.375C13.8094 1.06563 14.3156 1.06563 14.625 1.375L17.3426 4.09258C17.7645 4.51445 18 5.0875 18 5.68516V6.15625V7V8.125V13.4688C18 14.868 16.868 16 15.4688 16C14.0695 16 12.9375 14.868 12.9375 13.4688V12.3438C12.9375 11.5668 12.3082 10.9375 11.5312 10.9375H11.25V16C11.8723 16 12.375 16.5027 12.375 17.125C12.375 17.7473 11.8723 18.25 11.25 18.25H1.125C0.502734 18.25 0 17.7473 0 17.125C0 16.5027 0.502734 16 1.125 16V2.5ZM3.375 3.0625V6.4375C3.375 6.74687 3.62812 7 3.9375 7H8.4375C8.74687 7 9 6.74687 9 6.4375V3.0625C9 2.75312 8.74687 2.5 8.4375 2.5H3.9375C3.62812 2.5 3.375 2.75312 3.375 3.0625Z" fill="white"/>
</g>
<defs>
<clipPath id="clip0_1_6413">
<path d="M0 0.25H18V18.25H0V0.25Z" fill="white"/>
</clipPath>
</defs>
</svg>
