<svg width="12" height="13" viewBox="0 0 12 13" fill="none" xmlns="http://www.w3.org/2000/svg">
<g clip-path="url(#clip0_1_5851)">
<g clip-path="url(#clip1_1_5851)">
<path d="M12 2.75C12 3.92656 10.6148 5.68203 10.0172 6.38281C9.92812 6.48594 9.79688 6.52578 9.67734 6.5H7.5C7.08516 6.5 6.75 6.83516 6.75 7.25C6.75 7.66484 7.08516 8 7.5 8H9.75C10.9922 8 12 9.00781 12 10.25C12 11.4922 10.9922 12.5 9.75 12.5H3.27188C3.47578 12.268 3.72422 11.9703 3.975 11.6375C4.12266 11.4406 4.275 11.225 4.42031 11H9.75C10.1648 11 10.5 10.6648 10.5 10.25C10.5 9.83516 10.1648 9.5 9.75 9.5H7.5C6.25781 9.5 5.25 8.49219 5.25 7.25C5.25 6.00781 6.25781 5 7.5 5H8.43281C7.94062 4.26172 7.5 3.41328 7.5 2.75C7.5 1.50781 8.50781 0.5 9.75 0.5C10.9922 0.5 12 1.50781 12 2.75ZM2.74453 11.9633C2.65547 12.0641 2.57578 12.1531 2.50781 12.2281L2.46562 12.275L2.46094 12.2703C2.32031 12.3781 2.11875 12.3641 1.99219 12.2281C1.40156 11.5859 0 9.93359 0 8.75C0 7.50781 1.00781 6.5 2.25 6.5C3.49219 6.5 4.5 7.50781 4.5 8.75C4.5 9.45312 4.00547 10.3203 3.48047 11.0445C3.22969 11.3891 2.97187 11.7008 2.75859 11.9469L2.74453 11.9633ZM3 8.75C3 8.55109 2.92098 8.36032 2.78033 8.21967C2.63968 8.07902 2.44891 8 2.25 8C2.05109 8 1.86032 8.07902 1.71967 8.21967C1.57902 8.36032 1.5 8.55109 1.5 8.75C1.5 8.94891 1.57902 9.13968 1.71967 9.28033C1.86032 9.42098 2.05109 9.5 2.25 9.5C2.44891 9.5 2.63968 9.42098 2.78033 9.28033C2.92098 9.13968 3 8.94891 3 8.75ZM9.75 3.5C9.94891 3.5 10.1397 3.42098 10.2803 3.28033C10.421 3.13968 10.5 2.94891 10.5 2.75C10.5 2.55109 10.421 2.36032 10.2803 2.21967C10.1397 2.07902 9.94891 2 9.75 2C9.55109 2 9.36032 2.07902 9.21967 2.21967C9.07902 2.36032 9 2.55109 9 2.75C9 2.94891 9.07902 3.13968 9.21967 3.28033C9.36032 3.42098 9.55109 3.5 9.75 3.5Z" fill="#9CA3AF"/>
</g>
</g>
<defs>
<clipPath id="clip0_1_5851">
<rect width="12" height="12" fill="white" transform="translate(0 0.5)"/>
</clipPath>
<clipPath id="clip1_1_5851">
<path d="M0 0.5H12V12.5H0V0.5Z" fill="white"/>
</clipPath>
</defs>
</svg>
