<svg width="16" height="20" viewBox="0 0 16 20" fill="none" xmlns="http://www.w3.org/2000/svg">
<path d="M16 20H0.25V0H16V20Z"/>
<g clip-path="url(#clip0_1_7925)">
<path d="M6.66758 3.91758L5.63672 4.30313C5.55469 4.3332 5.5 4.4125 5.5 4.5C5.5 4.5875 5.55469 4.6668 5.63672 4.69687L6.66758 5.08242L7.05312 6.11328C7.0832 6.19531 7.1625 6.25 7.25 6.25C7.3375 6.25 7.4168 6.19531 7.44688 6.11328L7.83242 5.08242L8.86328 4.69687C8.94531 4.6668 9 4.5875 9 4.5C9 4.4125 8.94531 4.3332 8.86328 4.30313L7.83242 3.91758L7.44688 2.88672C7.4168 2.80469 7.3375 2.75 7.25 2.75C7.1625 2.75 7.0832 2.80469 7.05312 2.88672L6.66758 3.91758ZM1.51055 13.5617C0.999219 14.073 0.999219 14.9043 1.51055 15.4184L2.45664 16.3645C2.96797 16.8758 3.79922 16.8758 4.31328 16.3645L14.7395 5.93555C15.2508 5.42422 15.2508 4.59297 14.7395 4.07891L13.7934 3.13555C13.282 2.62422 12.4508 2.62422 11.9367 3.13555L1.51055 13.5617ZM13.5008 5.00859L10.6297 7.87969L9.99258 7.24258L12.8637 4.37148L13.5008 5.00859ZM0.455078 5.95469C0.332031 6.00117 0.25 6.11875 0.25 6.25C0.25 6.38125 0.332031 6.49883 0.455078 6.54531L2 7.125L2.57969 8.66992C2.62617 8.79297 2.74375 8.875 2.875 8.875C3.00625 8.875 3.12383 8.79297 3.17031 8.66992L3.75 7.125L5.29492 6.54531C5.41797 6.49883 5.5 6.38125 5.5 6.25C5.5 6.11875 5.41797 6.00117 5.29492 5.95469L3.75 5.375L3.17031 3.83008C3.12383 3.70703 3.00625 3.625 2.875 3.625C2.74375 3.625 2.62617 3.70703 2.57969 3.83008L2 5.375L0.455078 5.95469ZM10.0801 12.9547C9.95703 13.0012 9.875 13.1187 9.875 13.25C9.875 13.3813 9.95703 13.4988 10.0801 13.5453L11.625 14.125L12.2047 15.6699C12.2512 15.793 12.3687 15.875 12.5 15.875C12.6313 15.875 12.7488 15.793 12.7953 15.6699L13.375 14.125L14.9199 13.5453C15.043 13.4988 15.125 13.3813 15.125 13.25C15.125 13.1187 15.043 13.0012 14.9199 12.9547L13.375 12.375L12.7953 10.8301C12.7488 10.707 12.6313 10.625 12.5 10.625C12.3687 10.625 12.2512 10.707 12.2047 10.8301L11.625 12.375L10.0801 12.9547Z" fill="#3B82F6"/>
</g>
<defs>
<clipPath id="clip0_1_7925">
<path d="M0.25 2.75H16V16.75H0.25V2.75Z" fill="white"/>
</clipPath>
</defs>
</svg>
