<svg width="49" height="48" viewBox="0 0 49 48" fill="none" xmlns="http://www.w3.org/2000/svg">
<path d="M36.5 0C43.1274 0 48.5 5.37258 48.5 12V36C48.5 42.6274 43.1274 48 36.5 48H12.5C5.87258 48 0.5 42.6274 0.5 36V12C0.5 5.37258 5.87258 0 12.5 0H36.5Z" fill="#EF4444"/>
<path d="M36.5 0C43.1274 0 48.5 5.37258 48.5 12V36C48.5 42.6274 43.1274 48 36.5 48H12.5C5.87258 48 0.5 42.6274 0.5 36V12C0.5 5.37258 5.87258 0 12.5 0H36.5Z"/>
<path d="M34.5 38H14.5V10H34.5V38Z"/>
<g clip-path="url(#clip0_19_2353)">
<path d="M28.25 26C31.7031 26 34.5 23.2031 34.5 19.75C34.5 19.1523 34.4141 18.5742 34.2578 18.0234C34.1367 17.6016 33.6172 17.5078 33.3086 17.8164L30.3086 20.8164C30.1914 20.9336 30.0312 21 29.8672 21H27.625C27.2812 21 27 20.7188 27 20.375V18.1328C27 17.9688 27.0664 17.8086 27.1836 17.6914L30.1836 14.6914C30.4922 14.3828 30.3945 13.8633 29.9766 13.7422C29.4258 13.5859 28.8477 13.5 28.25 13.5C24.7969 13.5 22 16.2969 22 19.75C22 20.4961 22.1328 21.2148 22.3711 21.8789L15.2773 28.9727C14.7812 29.4688 14.5 30.1445 14.5 30.8477C14.5 32.3125 15.6875 33.5 17.1523 33.5C17.8555 33.5 18.5312 33.2188 19.0273 32.7227L26.1211 25.6289C26.7852 25.8711 27.5039 26 28.25 26ZM17.625 29.4375C17.8736 29.4375 18.1121 29.5363 18.2879 29.7121C18.4637 29.8879 18.5625 30.1264 18.5625 30.375C18.5625 30.6236 18.4637 30.8621 18.2879 31.0379C18.1121 31.2137 17.8736 31.3125 17.625 31.3125C17.3764 31.3125 17.1379 31.2137 16.9621 31.0379C16.7863 30.8621 16.6875 30.6236 16.6875 30.375C16.6875 30.1264 16.7863 29.8879 16.9621 29.7121C17.1379 29.5363 17.3764 29.4375 17.625 29.4375Z" fill="white"/>
</g>
<defs>
<clipPath id="clip0_19_2353">
<path d="M14.5 13.5H34.5V33.5H14.5V13.5Z" fill="white"/>
</clipPath>
</defs>
</svg>
