<svg width="49" height="48" viewBox="0 0 49 48" fill="none" xmlns="http://www.w3.org/2000/svg">
<path d="M36.5 0C43.1274 0 48.5 5.37258 48.5 12V36C48.5 42.6274 43.1274 48 36.5 48H12.5C5.87258 48 0.5 42.6274 0.5 36V12C0.5 5.37258 5.87258 0 12.5 0H36.5Z" fill="#10B981"/>
<path d="M36.5 0C43.1274 0 48.5 5.37258 48.5 12V36C48.5 42.6274 43.1274 48 36.5 48H12.5C5.87258 48 0.5 42.6274 0.5 36V12C0.5 5.37258 5.87258 0 12.5 0H36.5Z"/>
<path d="M34.5 38H14.5V10H34.5V38Z"/>
<g clip-path="url(#clip0_19_2349)">
<path d="M34.5 17.25C34.5 19.2109 32.1914 22.1367 31.1953 23.3047C31.0469 23.4766 30.8281 23.543 30.6289 23.5H27C26.3086 23.5 25.75 24.0586 25.75 24.75C25.75 25.4414 26.3086 26 27 26H30.75C32.8203 26 34.5 27.6797 34.5 29.75C34.5 31.8203 32.8203 33.5 30.75 33.5H19.9531C20.293 33.1133 20.707 32.6172 21.125 32.0625C21.3711 31.7344 21.625 31.375 21.8672 31H30.75C31.4414 31 32 30.4414 32 29.75C32 29.0586 31.4414 28.5 30.75 28.5H27C24.9297 28.5 23.25 26.8203 23.25 24.75C23.25 22.6797 24.9297 21 27 21H28.5547C27.7344 19.7695 27 18.3555 27 17.25C27 15.1797 28.6797 13.5 30.75 13.5C32.8203 13.5 34.5 15.1797 34.5 17.25ZM19.0742 32.6055C18.9258 32.7734 18.793 32.9219 18.6797 33.0469L18.6094 33.125L18.6016 33.1172C18.3672 33.2969 18.0312 33.2734 17.8203 33.0469C16.8359 31.9766 14.5 29.2227 14.5 27.25C14.5 25.1797 16.1797 23.5 18.25 23.5C20.3203 23.5 22 25.1797 22 27.25C22 28.4219 21.1758 29.8672 20.3008 31.0742C19.8828 31.6484 19.4531 32.168 19.0977 32.5781L19.0742 32.6055ZM19.5 27.25C19.5 26.9185 19.3683 26.6005 19.1339 26.3661C18.8995 26.1317 18.5815 26 18.25 26C17.9185 26 17.6005 26.1317 17.3661 26.3661C17.1317 26.6005 17 26.9185 17 27.25C17 27.5815 17.1317 27.8995 17.3661 28.1339C17.6005 28.3683 17.9185 28.5 18.25 28.5C18.5815 28.5 18.8995 28.3683 19.1339 28.1339C19.3683 27.8995 19.5 27.5815 19.5 27.25ZM30.75 18.5C31.0815 18.5 31.3995 18.3683 31.6339 18.1339C31.8683 17.8995 32 17.5815 32 17.25C32 16.9185 31.8683 16.6005 31.6339 16.3661C31.3995 16.1317 31.0815 16 30.75 16C30.4185 16 30.1005 16.1317 29.8661 16.3661C29.6317 16.6005 29.5 16.9185 29.5 17.25C29.5 17.5815 29.6317 17.8995 29.8661 18.1339C30.1005 18.3683 30.4185 18.5 30.75 18.5Z" fill="white"/>
</g>
<defs>
<clipPath id="clip0_19_2349">
<path d="M14.5 13.5H34.5V33.5H14.5V13.5Z" fill="white"/>
</clipPath>
</defs>
</svg>
