<svg width="49" height="48" viewBox="0 0 49 48" fill="none" xmlns="http://www.w3.org/2000/svg">
<path d="M36.5 0C43.1274 0 48.5 5.37258 48.5 12V36C48.5 42.6274 43.1274 48 36.5 48H12.5C5.87258 48 0.5 42.6274 0.5 36V12C0.5 5.37258 5.87258 0 12.5 0H36.5Z" fill="#2563EB"/>
<path d="M36.5 0C43.1274 0 48.5 5.37258 48.5 12V36C48.5 42.6274 43.1274 48 36.5 48H12.5C5.87258 48 0.5 42.6274 0.5 36V12C0.5 5.37258 5.87258 0 12.5 0H36.5Z"/>
<path d="M33.25 38H15.75V10H33.25V38Z"/>
<path d="M33.25 33.5H15.75V13.5H33.25V33.5Z"/>
<path d="M25.75 16.625C25.75 15.9336 25.1914 15.375 24.5 15.375C23.8086 15.375 23.25 15.9336 23.25 16.625V22.25H17.625C16.9336 22.25 16.375 22.8086 16.375 23.5C16.375 24.1914 16.9336 24.75 17.625 24.75H23.25V30.375C23.25 31.0664 23.8086 31.625 24.5 31.625C25.1914 31.625 25.75 31.0664 25.75 30.375V24.75H31.375C32.0664 24.75 32.625 24.1914 32.625 23.5C32.625 22.8086 32.0664 22.25 31.375 22.25H25.75V16.625Z" fill="white"/>
</svg>
