<svg width="24" height="24" viewBox="0 0 24 24" fill="none" xmlns="http://www.w3.org/2000/svg">
<path fill-rule="evenodd" clip-rule="evenodd" d="M14.7518 1.914C14.1916 2.68512 13.8518 3.59423 13.769 4.5438C13.6861 5.49337 13.8634 6.44758 14.2817 7.30406C14.7 8.16054 15.3436 8.88697 16.1435 9.40543C16.9433 9.92389 17.8692 10.2148 18.8218 10.247V10.258C18.8368 10.456 18.8518 10.659 18.8718 10.855C19.1088 13.102 19.6488 14.645 20.1678 15.658C20.5128 16.333 20.8518 16.781 21.0918 17.052C21.1972 17.1715 21.3108 17.2834 21.4318 17.387L21.4418 17.393C21.5702 17.4861 21.6657 17.6175 21.7146 17.7683C21.7636 17.9191 21.7636 18.0815 21.7145 18.2323C21.6654 18.383 21.5697 18.5143 21.4414 18.6074C21.313 18.7004 21.1584 18.7503 20.9998 18.75H2.99985C2.84165 18.7498 2.68756 18.6996 2.55962 18.6066C2.43168 18.5135 2.33643 18.3824 2.2875 18.232C2.23858 18.0815 2.23847 17.9195 2.28721 17.769C2.33594 17.6184 2.43102 17.4872 2.55885 17.394L2.56685 17.387L2.63085 17.333C2.69085 17.279 2.78785 17.188 2.90785 17.052C3.14785 16.782 3.48685 16.334 3.83185 15.659C4.52185 14.31 5.24985 12.03 5.24985 8.4C5.24985 6.519 5.94985 4.706 7.20985 3.362C8.47185 2.016 10.1938 1.25 11.9998 1.25C12.3825 1.25 12.7602 1.28367 13.1328 1.351C13.3708 1.394 14.1508 1.637 14.7518 1.914Z" fill="#A8A8BD"/>
<path fill-rule="evenodd" clip-rule="evenodd" d="M15.2498 5C15.2498 4.00544 15.6449 3.05161 16.3481 2.34835C17.0514 1.64509 18.0052 1.25 18.9998 1.25C19.9944 1.25 20.9482 1.64509 21.6514 2.34835C22.3547 3.05161 22.7498 4.00544 22.7498 5C22.7498 5.99456 22.3547 6.94839 21.6514 7.65165C20.9482 8.35491 19.9944 8.75 18.9998 8.75C18.0052 8.75 17.0514 8.35491 16.3481 7.65165C15.6449 6.94839 15.2498 5.99456 15.2498 5ZM9.89379 20.351C9.97902 20.3016 10.0731 20.2695 10.1708 20.2565C10.2684 20.2435 10.3677 20.2498 10.4628 20.2752C10.558 20.3005 10.6473 20.3444 10.7255 20.4042C10.8037 20.4641 10.8694 20.5388 10.9188 20.624C11.0287 20.8133 11.1864 20.9704 11.3761 21.0796C11.5658 21.1889 11.7809 21.2464 11.9998 21.2464C12.2187 21.2464 12.4338 21.1889 12.6235 21.0796C12.8132 20.9704 12.9709 20.8133 13.0808 20.624C13.1302 20.5388 13.196 20.4641 13.2743 20.4043C13.3526 20.3445 13.4419 20.3007 13.5371 20.2754C13.6323 20.2501 13.7316 20.2438 13.8293 20.2568C13.9269 20.2699 14.0211 20.3021 14.1063 20.3515C14.1915 20.4009 14.2662 20.4667 14.326 20.545C14.3858 20.6233 14.4296 20.7126 14.4549 20.8078C14.4802 20.903 14.4865 21.0023 14.4735 21.1C14.4604 21.1976 14.4282 21.2918 14.3788 21.377C14.1371 21.7938 13.7901 22.1399 13.3726 22.3804C12.955 22.6209 12.4816 22.7476 11.9998 22.7476C11.5179 22.7476 11.0445 22.6209 10.627 22.3804C10.2095 22.1399 9.8625 21.7938 9.62079 21.377C9.57125 21.2917 9.53901 21.1975 9.52592 21.0998C9.51283 21.002 9.51915 20.9027 9.54451 20.8074C9.56986 20.7121 9.61377 20.6227 9.6737 20.5444C9.73364 20.4661 9.80843 20.4004 9.89379 20.351Z" fill="#A8A8BD"/>
<circle cx="19" cy="5" r="4" fill="#F83F3F"/>
</svg>
