<svg width="23" height="23" viewBox="0 0 23 23" fill="none" xmlns="http://www.w3.org/2000/svg">
<path d="M11.0388 16.0076C11.5268 16.0076 11.9948 15.8138 12.3398 15.4687C12.6849 15.1237 12.8787 14.6557 12.8787 14.1678C12.8787 13.6798 12.6849 13.2118 12.3398 12.8668C11.9948 12.5218 11.5268 12.3279 11.0388 12.3279C10.5509 12.3279 10.0829 12.5218 9.73788 12.8668C9.39284 13.2118 9.199 13.6798 9.199 14.1678C9.199 14.6557 9.39284 15.1237 9.73788 15.4687C10.0829 15.8138 10.5509 16.0076 11.0388 16.0076ZM16.5584 7.7283C17.0464 7.7283 17.5143 7.92214 17.8594 8.26718C18.2044 8.61222 18.3983 9.08019 18.3983 9.56815V18.7674C18.3983 19.2554 18.2044 19.7233 17.8594 20.0684C17.5143 20.4134 17.0464 20.6073 16.5584 20.6073H5.51929C5.03134 20.6073 4.56336 20.4134 4.21832 20.0684C3.87328 19.7233 3.67944 19.2554 3.67944 18.7674V9.56815C3.67944 9.08019 3.87328 8.61222 4.21832 8.26718C4.56336 7.92214 5.03134 7.7283 5.51929 7.7283H6.43922V5.88845C6.43922 4.66855 6.92382 3.49862 7.78642 2.63602C8.64902 1.77342 9.81895 1.28882 11.0388 1.28882C11.6429 1.28882 12.241 1.40779 12.799 1.63894C13.3571 1.8701 13.8642 2.2089 14.2913 2.63602C14.7184 3.06313 15.0572 3.57019 15.2884 4.12825C15.5195 4.6863 15.6385 5.28442 15.6385 5.88845V7.7283H16.5584ZM11.0388 3.12867C10.3069 3.12867 9.60495 3.41943 9.08739 3.93699C8.56983 4.45455 8.27907 5.15651 8.27907 5.88845V7.7283H13.7986V5.88845C13.7986 5.15651 13.5079 4.45455 12.9903 3.93699C12.4727 3.41943 11.7708 3.12867 11.0388 3.12867Z" fill="#111111"/>
</svg>
