<svg width="23" height="23" viewBox="0 0 23 23" fill="none" xmlns="http://www.w3.org/2000/svg">
<path d="M11.0388 16.2461C11.2995 16.2461 11.5181 16.1578 11.6948 15.9812C11.8714 15.8045 11.9594 15.5862 11.9588 15.3262V11.6465C11.9588 11.3858 11.8705 11.1675 11.6938 10.9915C11.5172 10.8155 11.2989 10.7272 11.0388 10.7265C10.7788 10.7259 10.5605 10.8142 10.3839 10.9915C10.2072 11.1687 10.1189 11.3871 10.1189 11.6465V15.3262C10.1189 15.5868 10.2072 15.8055 10.3839 15.9821C10.5605 16.1587 10.7788 16.2467 11.0388 16.2461ZM11.0388 8.8867C11.2995 8.8867 11.5181 8.79838 11.6948 8.62176C11.8714 8.44513 11.9594 8.2268 11.9588 7.96677C11.9582 7.70674 11.8698 7.48841 11.6938 7.31178C11.5178 7.13516 11.2995 7.04684 11.0388 7.04684C10.7782 7.04684 10.5599 7.13516 10.3839 7.31178C10.2078 7.48841 10.1195 7.70674 10.1189 7.96677C10.1183 8.2268 10.2066 8.44544 10.3839 8.62268C10.5611 8.79992 10.7794 8.88792 11.0388 8.8867ZM11.0388 20.7537C10.9315 20.7537 10.8319 20.7461 10.7399 20.7307C10.6479 20.7154 10.5559 20.6924 10.4639 20.6617C8.39406 19.9718 6.74586 18.6952 5.51929 16.8321C4.29273 14.9689 3.67944 12.9644 3.67944 10.8185V6.47189C3.67944 6.08859 3.79075 5.74362 4.01338 5.43697C4.236 5.13033 4.52332 4.90802 4.87535 4.77003L10.3949 2.7002C10.6095 2.62354 10.8242 2.58521 11.0388 2.58521C11.2535 2.58521 11.4681 2.62354 11.6828 2.7002L17.2024 4.77003C17.555 4.90802 17.8426 5.13033 18.0652 5.43697C18.2879 5.74362 18.3989 6.08859 18.3983 6.47189V10.8185C18.3983 12.965 17.785 14.9699 16.5584 16.833C15.3318 18.6962 13.6836 19.9724 11.6138 20.6617C11.5218 20.6924 11.4298 20.7154 11.3378 20.7307C11.2458 20.7461 11.1462 20.7537 11.0388 20.7537Z" fill="#111111"/>
</svg>
