<svg width="18" height="19" viewBox="0 0 18 19" fill="none" xmlns="http://www.w3.org/2000/svg">
<g clip-path="url(#clip0_1_6426)">
<path d="M12.375 11.5C15.4828 11.5 18 8.98281 18 5.875C18 5.33711 17.9227 4.8168 17.782 4.32109C17.673 3.94141 17.2055 3.85703 16.9277 4.13477L14.2277 6.83477C14.1223 6.94023 13.9781 7 13.8305 7H11.8125C11.5031 7 11.25 6.74687 11.25 6.4375V4.41953C11.25 4.27187 11.3098 4.12773 11.4152 4.02227L14.1152 1.32227C14.393 1.04453 14.3051 0.576953 13.9289 0.467969C13.4332 0.327344 12.9129 0.25 12.375 0.25C9.26719 0.25 6.75 2.76719 6.75 5.875C6.75 6.54648 6.86953 7.19336 7.08398 7.79102L0.699609 14.1754C0.253125 14.6219 0 15.2301 0 15.8629C0 17.1812 1.06875 18.25 2.38711 18.25C3.01992 18.25 3.62812 17.9969 4.07461 17.5504L10.459 11.166C11.0566 11.384 11.7035 11.5 12.375 11.5ZM2.8125 14.5938C3.03628 14.5938 3.25089 14.6826 3.40912 14.8409C3.56736 14.9991 3.65625 15.2137 3.65625 15.4375C3.65625 15.6613 3.56736 15.8759 3.40912 16.0341C3.25089 16.1924 3.03628 16.2812 2.8125 16.2812C2.58872 16.2812 2.37411 16.1924 2.21588 16.0341C2.05764 15.8759 1.96875 15.6613 1.96875 15.4375C1.96875 15.2137 2.05764 14.9991 2.21588 14.8409C2.37411 14.6826 2.58872 14.5938 2.8125 14.5938Z" fill="#4B5563"/>
</g>
<defs>
<clipPath id="clip0_1_6426">
<path d="M0 0.25H18V18.25H0V0.25Z" fill="white"/>
</clipPath>
</defs>
</svg>
