<svg width="25" height="24" viewBox="0 0 25 24" fill="none" xmlns="http://www.w3.org/2000/svg">
<path d="M12.25 15.75C14.3211 15.75 16 14.0711 16 12C16 9.92893 14.3211 8.25 12.25 8.25C10.1789 8.25 8.5 9.92893 8.5 12C8.5 14.0711 10.1789 15.75 12.25 15.75Z" stroke="#1C1C1C" stroke-width="1.41176" stroke-linecap="round" stroke-linejoin="round"/>
<path d="M4.134 16.6959C3.7196 15.9821 3.40212 15.2163 3.18994 14.4187L4.76307 12.4499C4.74525 12.149 4.74525 11.8472 4.76307 11.5462L3.19088 9.57744C3.4027 8.7797 3.71953 8.01363 4.13307 7.29932L6.63713 7.01807C6.83709 6.79278 7.05028 6.57959 7.27557 6.37963L7.55682 3.8765C8.2701 3.46494 9.03492 3.14999 9.83119 2.93994L11.7999 4.51307C12.1009 4.49525 12.4027 4.49525 12.7037 4.51307L14.6724 2.94088C15.4702 3.1527 16.2363 3.46953 16.9506 3.88307L17.2318 6.38713C17.4571 6.58709 17.6703 6.80028 17.8703 7.02557L20.3734 7.30682C20.7878 8.0206 21.1053 8.78639 21.3174 9.584L19.7443 11.5528C19.7621 11.8537 19.7621 12.1555 19.7443 12.4565L21.3165 14.4253C21.1062 15.2228 20.7909 15.9888 20.379 16.7034L17.8749 16.9846C17.675 17.2099 17.4618 17.4231 17.2365 17.6231L16.9553 20.1262C16.2415 20.5406 15.4757 20.8581 14.6781 21.0703L12.7093 19.4971C12.4083 19.5149 12.1066 19.5149 11.8056 19.4971L9.83682 21.0693C9.03931 20.859 8.27325 20.5437 7.55869 20.1318L7.27744 17.6278C7.05215 17.4278 6.83897 17.2146 6.639 16.9893L4.134 16.6959Z" stroke="#1C1C1C" stroke-width="1.41176" stroke-linecap="round" stroke-linejoin="round"/>
</svg>
