<svg width="23" height="23" viewBox="0 0 23 23" fill="none" xmlns="http://www.w3.org/2000/svg">
<path d="M15.6385 2.6731H6.43922C4.87535 2.6731 3.67944 3.869 3.67944 5.43287V10.9524H11.5908L9.47497 8.8366C9.107 8.46863 9.107 7.91667 9.47497 7.5487C9.84295 7.18073 10.3949 7.18073 10.7629 7.5487L14.4426 11.2284C14.8105 11.5964 14.8105 12.1483 14.4426 12.5163L10.7629 16.196C10.3949 16.564 9.84295 16.564 9.47497 16.196C9.107 15.828 9.107 15.2761 9.47497 14.9081L11.5908 12.7923H3.67944V18.3118C3.67944 19.8757 4.87535 21.0716 6.43922 21.0716H15.6385C17.2023 21.0716 18.3983 19.8757 18.3983 18.3118V5.43287C18.3983 3.869 17.2023 2.6731 15.6385 2.6731Z" fill="#111111"/>
</svg>
