<svg width="26" height="26" viewBox="0 0 26 26" fill="none" xmlns="http://www.w3.org/2000/svg">
<path d="M10.3574 17.4392L10.3558 17.4344L10.0543 17.336C8.62034 16.8292 7.36226 15.9209 6.42989 14.7193C5.67594 13.7484 5.15789 12.6156 4.91659 11.4103C4.6753 10.205 4.71736 8.96004 5.03947 7.77375C5.36157 6.58745 5.95491 5.49222 6.77267 4.57445C7.59043 3.65667 8.61025 2.94145 9.7517 2.48521C10.8931 2.02897 12.125 1.84417 13.35 1.94541C14.5751 2.04665 15.7599 2.43115 16.811 3.06858C17.862 3.70601 18.7506 4.57893 19.4066 5.6185C20.0626 6.65806 20.4681 7.83583 20.5911 9.05891C20.634 9.4953 20.2738 9.85076 19.8358 9.85076C19.3978 9.85076 19.0471 9.49371 18.9947 9.05891C18.8531 7.93673 18.4142 6.87277 17.7234 5.97712C17.0326 5.08148 16.1151 4.38669 15.0657 3.96464C14.0163 3.54259 12.8732 3.40862 11.7546 3.57658C10.6361 3.74454 9.58273 4.20834 8.70357 4.91999C7.82441 5.63163 7.15137 6.56527 6.75411 7.6243C6.35684 8.68333 6.24978 9.82927 6.44398 10.9436C6.63819 12.0579 7.12662 13.1 7.85874 13.9622C8.59085 14.8244 9.54005 15.4753 10.6081 15.8476C10.8775 15.3562 11.3117 14.9756 11.8341 14.7728C12.3565 14.5701 12.9337 14.5582 13.4641 14.7392C13.9945 14.9202 14.444 15.2825 14.7334 15.7623C15.0229 16.2422 15.1338 16.8087 15.0466 17.3623C14.9594 17.9159 14.6797 18.4209 14.2567 18.7885C13.8337 19.1561 13.2946 19.3627 12.7343 19.3719C12.174 19.3811 11.6284 19.1923 11.1936 18.8387C10.7588 18.4852 10.4627 17.9896 10.3574 17.4392ZM9.09901 18.669C7.54483 18.0345 6.18605 17.0003 5.16039 15.6714C4.89969 16.0624 4.76055 16.5218 4.7605 16.9917V17.7851C4.7605 20.9128 7.71208 24.1326 12.6949 24.1326C17.6776 24.1326 20.6292 20.9128 20.6292 17.7851V16.9917C20.6292 16.3604 20.3784 15.7549 19.932 15.3086C19.4856 14.8622 18.8802 14.6114 18.2489 14.6114H15.8686C16.2014 15.0559 16.4372 15.5653 16.5608 16.1067C16.6843 16.6481 16.6928 17.2093 16.5857 17.7542C16.4786 18.2991 16.2584 18.8154 15.9391 19.2698C15.6199 19.7242 15.2089 20.1065 14.7326 20.3919C14.2563 20.6774 13.7254 20.8597 13.1742 20.9271C12.623 20.9944 12.0638 20.9453 11.5327 20.7829C11.0017 20.6205 10.5107 20.3484 10.0915 19.9843C9.67225 19.6202 9.33413 19.1721 9.09901 18.669ZM17.4555 9.85076C17.4555 8.40036 16.8064 7.10071 15.7829 6.22793C15.2832 5.80463 14.7015 5.489 14.0742 5.30077C13.4469 5.11255 12.7875 5.05578 12.1372 5.13402C11.487 5.21226 10.8599 5.42382 10.2952 5.75548C9.73042 6.08714 9.24019 6.53175 8.85512 7.06152C8.47006 7.59129 8.19844 8.19481 8.05727 8.83434C7.91609 9.47387 7.90839 10.1357 8.03465 10.7783C8.1609 11.4209 8.4184 12.0306 8.79104 12.5692C9.16367 13.1078 9.64342 13.5637 10.2003 13.9084C10.9059 13.3363 11.7865 13.0238 12.6949 13.0229C13.6028 13.0229 14.4834 13.3343 15.1894 13.9052C15.8819 13.4792 16.4538 12.8828 16.8505 12.1731C17.2471 11.4634 17.4554 10.6638 17.4555 9.85076Z" fill="#111111"/>
</svg>
