<svg width="22" height="19" viewBox="0 0 22 19" fill="none" xmlns="http://www.w3.org/2000/svg">
<g clip-path="url(#clip0_1_6420)">
<path d="M9.875 1.375H7.24531C6.29258 1.375 5.4418 1.97617 5.12539 2.87266L0.983984 14.5656C0.913672 14.7695 0.875 14.9875 0.875 15.2055C0.875 16.2637 1.73633 17.125 2.79453 17.125H9.875V14.875C9.875 14.2527 10.3777 13.75 11 13.75C11.6223 13.75 12.125 14.2527 12.125 14.875V17.125H19.2055C20.2672 17.125 21.125 16.2637 21.125 15.2055C21.125 14.9875 21.0863 14.7695 21.016 14.5656L16.8746 2.87266C16.5547 1.97617 15.7074 1.375 14.7547 1.375H12.125V3.625C12.125 4.24727 11.6223 4.75 11 4.75C10.3777 4.75 9.875 4.24727 9.875 3.625V1.375ZM12.125 8.125V10.375C12.125 10.9973 11.6223 11.5 11 11.5C10.3777 11.5 9.875 10.9973 9.875 10.375V8.125C9.875 7.50273 10.3777 7 11 7C11.6223 7 12.125 7.50273 12.125 8.125Z" fill="#4B5563"/>
</g>
<defs>
<clipPath id="clip0_1_6420">
<path d="M0.875 0.25H21.125V18.25H0.875V0.25Z" fill="white"/>
</clipPath>
</defs>
</svg>
