<svg width="20" height="24" viewBox="0 0 20 24" fill="none" xmlns="http://www.w3.org/2000/svg">
<path d="M20 24H0V0H20V24Z"/>
<g clip-path="url(#clip0_19_2341)">
<path d="M1.5 3C0.671875 3 0 3.67188 0 4.5V14.5C0 15.3281 0.671875 16 1.5 16H2C2 17.6562 3.34375 19 5 19C6.65625 19 8 17.6562 8 16H12C12 17.6562 13.3438 19 15 19C16.6562 19 18 17.6562 18 16H19C19.5531 16 20 15.5531 20 15C20 14.4469 19.5531 14 19 14V12V11V10.4156C19 9.88438 18.7906 9.375 18.4156 9L16 6.58437C15.625 6.20937 15.1156 6 14.5844 6H13V4.5C13 3.67188 12.3281 3 11.5 3H1.5ZM13 8H14.5844L17 10.4156V11H13V8ZM3.5 16C3.5 15.6022 3.65804 15.2206 3.93934 14.9393C4.22064 14.658 4.60218 14.5 5 14.5C5.39782 14.5 5.77936 14.658 6.06066 14.9393C6.34196 15.2206 6.5 15.6022 6.5 16C6.5 16.3978 6.34196 16.7794 6.06066 17.0607C5.77936 17.342 5.39782 17.5 5 17.5C4.60218 17.5 4.22064 17.342 3.93934 17.0607C3.65804 16.7794 3.5 16.3978 3.5 16ZM15 14.5C15.3978 14.5 15.7794 14.658 16.0607 14.9393C16.342 15.2206 16.5 15.6022 16.5 16C16.5 16.3978 16.342 16.7794 16.0607 17.0607C15.7794 17.342 15.3978 17.5 15 17.5C14.6022 17.5 14.2206 17.342 13.9393 17.0607C13.658 16.7794 13.5 16.3978 13.5 16C13.5 15.6022 13.658 15.2206 13.9393 14.9393C14.2206 14.658 14.6022 14.5 15 14.5Z" fill="#9CA3AF"/>
</g>
<defs>
<clipPath id="clip0_19_2341">
<path d="M0 3H20V19H0V3Z" fill="white"/>
</clipPath>
</defs>
</svg>
