<svg width="21" height="19" viewBox="0 0 21 19" fill="none" xmlns="http://www.w3.org/2000/svg">
<g clip-path="url(#clip0_1_5121)">
<g clip-path="url(#clip1_1_5121)">
<path d="M8.71875 0.25H7.3125C6.38086 0.25 5.625 1.00586 5.625 1.9375V5.875C5.625 7.11602 6.63398 8.125 7.875 8.125H12.375C13.616 8.125 14.625 7.11602 14.625 5.875V1.9375C14.625 1.00586 13.8691 0.25 12.9375 0.25H11.5312V3.0625C11.5312 3.37188 11.2781 3.625 10.9688 3.625H9.28125C8.97188 3.625 8.71875 3.37188 8.71875 3.0625V0.25ZM2.25 9.25C1.00898 9.25 0 10.259 0 11.5V16C0 17.241 1.00898 18.25 2.25 18.25H7.875C9.11602 18.25 10.125 17.241 10.125 16V11.5C10.125 10.259 9.11602 9.25 7.875 9.25H6.46875V12.0625C6.46875 12.3719 6.21562 12.625 5.90625 12.625H4.21875C3.90937 12.625 3.65625 12.3719 3.65625 12.0625V9.25H2.25ZM12.375 18.25H18C19.241 18.25 20.25 17.241 20.25 16V11.5C20.25 10.259 19.241 9.25 18 9.25H16.5938V12.0625C16.5938 12.3719 16.3406 12.625 16.0312 12.625H14.3438C14.0344 12.625 13.7812 12.3719 13.7812 12.0625V9.25H12.375C11.8477 9.25 11.3625 9.4293 10.9793 9.73516C11.1516 10.1008 11.25 10.5086 11.25 10.9375V16.5625C11.25 16.9914 11.1516 17.3992 10.9793 17.7648C11.3625 18.0707 11.8477 18.25 12.375 18.25Z" fill="#2563EB"/>
</g>
</g>
<defs>
<clipPath id="clip0_1_5121">
<rect width="20.25" height="18" fill="white" transform="translate(0 0.25)"/>
</clipPath>
<clipPath id="clip1_1_5121">
<path d="M0 0.25H20.25V18.25H0V0.25Z" fill="white"/>
</clipPath>
</defs>
</svg>
